# xmcd
#
# Track frame offsets:
#	150
#	14270
#	31572
#	43725
#	59795
#	74735
#	88692
#	102900
#	132810
#	149410
#	164945
#	180425
#	194552
#	213457
#	232055
#	247265
#	263227
#	274310
#	289265
#
# Disc length: 4087 seconds
#
# Revision: 7
# Processed by: cddbd v1.5.2PL0 Copyright (c) Steve Scherf et al.
# Submitted via: audiograbber 1.83.01
#
DISCID=370ff513
DTITLE=Powder Blues Band - First Decade - Greatest Hits
DYEAR=1990
DGENRE=Blues
TTITLE0=Boppin' With the Blues
TTITLE1=Hear That Guitar Ring
TTITLE2=Just a Little
TTITLE3=The Rockchopper
TTITLE4=Doin' It Right
TTITLE5=Buzzard Luck
TTITLE6=What've I Been Drinkin'
TTITLE7=Personal Manager
TTITLE8=Sweet Little Girl
TTITLE9=Thirsty Ears
TTITLE10=Should Be You and Me
TTITLE11=Swami Swing
TTITLE12=Joyridin'
TTITLE13=Nothin but a Tease
TTITLE14=Lovin', Kissin' and Huggin'
TTITLE15=Pushy
TTITLE16=Your Daddy
TTITLE17=Slow Motion Walter
TTITLE18=I'm on the Road Again
EXTD=
EXTT0=
EXTT1=
EXTT2=
EXTT3=
EXTT4=
EXTT5=
EXTT6=
EXTT7=
EXTT8=
EXTT9=
EXTT10=
EXTT11=
EXTT12=
EXTT13=
EXTT14=
EXTT15=
EXTT16=
EXTT17=
EXTT18=
PLAYORDER=
